<?xml version="1.0" standalone="no"?><!-- Generator: Gravit.io --><svg xmlns="http://www.w3.org/2000/svg" xmlns:xlink="http://www.w3.org/1999/xlink" style="isolation:isolate" viewBox="0 0 166.473 64.756" width="166.473" height="64.756"><defs><clipPath id="_clipPath_1rv4O895jcdmA7IhlWoQUkBnnlEyN8Jw"><rect width="166.473" height="64.756"/></clipPath></defs><g clip-path="url(#_clipPath_1rv4O895jcdmA7IhlWoQUkBnnlEyN8Jw)"><path d=" M 11.748 56.313 L 11.748 47.628 L 16.723 47.628 L 16.723 48.395 L 12.575 48.395 L 12.575 51.679 L 16.235 51.679 L 16.235 52.457 L 12.575 52.457 L 12.575 56.313 L 11.748 56.313 Z " fill="rgb(255,255,255)"/><path d=" M 26.783 56.313 C 26.621 55.94 26.43 55.482 26.211 54.938 C 25.992 54.395 25.765 53.819 25.53 53.211 L 22.197 53.211 C 21.962 53.818 21.735 54.395 21.516 54.938 C 21.297 55.482 21.106 55.94 20.945 56.313 L 20.117 56.313 C 20.239 56.021 20.401 55.633 20.604 55.151 C 20.806 54.669 21.025 54.139 21.261 53.564 C 21.496 52.988 21.739 52.39 21.99 51.77 C 22.242 51.149 22.485 50.551 22.721 49.975 C 22.955 49.4 23.172 48.872 23.371 48.394 C 23.57 47.915 23.734 47.527 23.864 47.226 C 23.986 47.527 24.147 47.915 24.35 48.394 C 24.553 48.873 24.771 49.4 25.007 49.975 C 25.242 50.551 25.487 51.149 25.742 51.77 C 25.998 52.39 26.243 52.988 26.479 53.564 C 26.714 54.139 26.93 54.668 27.13 55.151 C 27.328 55.633 27.493 56.021 27.622 56.313 L 26.783 56.313 L 26.783 56.313 Z  M 23.742 49.355 C 23.58 49.737 23.387 50.203 23.164 50.754 C 22.941 51.305 22.712 51.885 22.477 52.493 L 25.251 52.493 C 25.007 51.885 24.776 51.305 24.557 50.754 C 24.338 50.202 24.147 49.736 23.986 49.355 C 23.969 49.323 23.949 49.268 23.924 49.191 C 23.9 49.114 23.88 49.044 23.864 48.978 C 23.847 49.043 23.827 49.114 23.803 49.191 C 23.779 49.268 23.758 49.323 23.742 49.355 Z " fill="rgb(255,255,255)"/><path d=" M 38.389 55.729 C 38.129 55.891 37.785 56.045 37.355 56.191 C 36.925 56.337 36.426 56.411 35.859 56.411 C 35.186 56.411 34.579 56.293 34.04 56.057 C 33.501 55.823 33.043 55.504 32.665 55.103 C 32.288 54.702 31.996 54.237 31.789 53.709 C 31.584 53.183 31.48 52.622 31.48 52.03 C 31.48 51.389 31.597 50.794 31.833 50.243 C 32.068 49.691 32.389 49.215 32.793 48.813 C 33.199 48.412 33.673 48.097 34.217 47.87 C 34.76 47.643 35.339 47.53 35.956 47.53 C 36.175 47.53 36.395 47.544 36.619 47.572 C 36.842 47.601 37.055 47.643 37.258 47.7 C 37.461 47.757 37.647 47.822 37.817 47.894 C 37.987 47.967 38.134 48.048 38.256 48.137 C 38.214 48.202 38.182 48.255 38.158 48.295 C 38.134 48.336 38.109 48.379 38.085 48.423 C 38.06 48.47 38.032 48.521 38 48.577 C 37.968 48.634 37.927 48.707 37.878 48.796 C 37.618 48.634 37.316 48.513 36.972 48.432 C 36.627 48.35 36.297 48.31 35.981 48.31 C 35.47 48.31 34.991 48.408 34.545 48.602 C 34.099 48.796 33.712 49.062 33.383 49.399 C 33.055 49.736 32.795 50.125 32.605 50.566 C 32.414 51.008 32.319 51.477 32.319 51.971 C 32.319 52.442 32.404 52.894 32.575 53.327 C 32.745 53.761 32.988 54.141 33.304 54.471 C 33.621 54.799 33.998 55.063 34.435 55.261 C 34.874 55.46 35.36 55.559 35.896 55.559 C 36.13 55.559 36.358 55.541 36.577 55.505 C 36.795 55.468 36.998 55.42 37.184 55.359 C 37.371 55.298 37.535 55.235 37.678 55.171 C 37.819 55.107 37.931 55.041 38.012 54.977 L 38.389 55.729 L 38.389 55.729 Z " fill="rgb(255,255,255)"/><path d=" M 48.249 47.628 L 48.249 48.419 L 45.937 48.419 L 45.937 56.313 L 45.098 56.313 L 45.098 48.419 L 42.812 48.419 L 42.812 47.628 L 48.249 47.628 Z " fill="rgb(255,255,255)"/><rect x="52.266" y="53.455" width="2.262" height="0.692" transform="matrix(1,0,0,1,0,0)" fill="rgb(255,255,255)"/><path d=" M 66.424 55.729 C 66.163 55.891 65.819 56.045 65.389 56.191 C 64.96 56.337 64.461 56.411 63.894 56.411 C 63.22 56.411 62.613 56.293 62.075 56.057 C 61.536 55.823 61.077 55.504 60.7 55.103 C 60.323 54.702 60.031 54.237 59.824 53.709 C 59.618 53.183 59.514 52.622 59.514 52.03 C 59.514 51.389 59.632 50.794 59.868 50.243 C 60.102 49.691 60.423 49.215 60.828 48.813 C 61.234 48.412 61.708 48.097 62.251 47.87 C 62.795 47.643 63.374 47.53 63.99 47.53 C 64.209 47.53 64.43 47.544 64.654 47.572 C 64.877 47.601 65.09 47.643 65.292 47.7 C 65.495 47.757 65.681 47.822 65.852 47.894 C 66.022 47.967 66.169 48.048 66.29 48.137 C 66.249 48.202 66.217 48.255 66.192 48.295 C 66.169 48.336 66.144 48.379 66.12 48.423 C 66.095 48.468 66.067 48.519 66.035 48.575 C 66.002 48.632 65.962 48.705 65.913 48.794 C 65.653 48.632 65.351 48.511 65.007 48.43 C 64.662 48.348 64.331 48.308 64.015 48.308 C 63.505 48.308 63.026 48.406 62.58 48.6 C 62.133 48.794 61.746 49.06 61.418 49.397 C 61.089 49.734 60.83 50.123 60.64 50.564 C 60.449 51.006 60.354 51.475 60.354 51.969 C 60.354 52.44 60.439 52.892 60.609 53.325 C 60.779 53.758 61.023 54.139 61.339 54.469 C 61.655 54.797 62.032 55.061 62.47 55.259 C 62.909 55.458 63.395 55.557 63.93 55.557 C 64.165 55.557 64.393 55.539 64.612 55.503 C 64.83 55.466 65.033 55.418 65.219 55.357 C 65.406 55.296 65.57 55.233 65.712 55.169 C 65.854 55.105 65.966 55.039 66.047 54.975 L 66.424 55.729 L 66.424 55.729 Z " fill="rgb(255,255,255)"/><path d=" M 71.254 56.313 L 71.254 47.627 L 72.093 47.627 L 72.093 51.544 L 77.032 51.544 L 77.032 47.627 L 77.883 47.627 L 77.883 48.74 L 77.883 50.25 C 77.883 50.796 77.881 51.368 77.878 51.964 C 77.874 52.56 77.872 53.131 77.872 53.679 C 77.872 54.227 77.87 54.732 77.866 55.194 C 77.86 55.656 77.859 56.029 77.859 56.313 L 77.032 56.313 L 77.032 52.335 L 72.093 52.335 L 72.093 56.313 L 71.254 56.313 L 71.254 56.313 Z " fill="rgb(255,255,255)"/><path d=" M 83.717 56.313 L 83.717 47.628 L 89.191 47.628 L 89.191 48.382 L 84.544 48.382 L 84.544 51.558 L 88.704 51.558 L 88.704 52.336 L 84.544 52.336 L 84.544 55.535 L 89.362 55.535 L 89.362 56.313 L 83.717 56.313 Z " fill="rgb(255,255,255)"/><path d=" M 100.565 55.729 C 100.306 55.891 99.961 56.045 99.532 56.191 C 99.101 56.337 98.603 56.411 98.035 56.411 C 97.362 56.411 96.757 56.293 96.217 56.057 C 95.678 55.823 95.22 55.504 94.843 55.103 C 94.466 54.702 94.174 54.237 93.967 53.709 C 93.76 53.183 93.657 52.622 93.657 52.03 C 93.657 51.389 93.773 50.794 94.01 50.243 C 94.245 49.691 94.565 49.215 94.971 48.813 C 95.376 48.412 95.851 48.097 96.394 47.87 C 96.937 47.643 97.517 47.53 98.134 47.53 C 98.353 47.53 98.573 47.544 98.796 47.572 C 99.02 47.601 99.233 47.643 99.435 47.7 C 99.637 47.757 99.825 47.822 99.995 47.894 C 100.166 47.967 100.311 48.048 100.433 48.137 C 100.393 48.202 100.36 48.255 100.336 48.295 C 100.312 48.336 100.287 48.379 100.263 48.423 C 100.239 48.468 100.21 48.519 100.178 48.575 C 100.145 48.632 100.105 48.705 100.056 48.794 C 99.797 48.632 99.494 48.511 99.151 48.43 C 98.805 48.348 98.475 48.308 98.159 48.308 C 97.648 48.308 97.17 48.406 96.723 48.6 C 96.278 48.794 95.89 49.06 95.562 49.397 C 95.234 49.734 94.974 50.123 94.783 50.564 C 94.594 51.006 94.498 51.475 94.498 51.969 C 94.498 52.44 94.584 52.892 94.754 53.325 C 94.924 53.758 95.167 54.139 95.483 54.469 C 95.798 54.797 96.176 55.061 96.615 55.259 C 97.053 55.458 97.539 55.557 98.074 55.557 C 98.309 55.557 98.536 55.539 98.756 55.503 C 98.975 55.466 99.177 55.418 99.364 55.357 C 99.55 55.296 99.714 55.233 99.855 55.169 C 99.998 55.105 100.109 55.039 100.19 54.975 L 100.565 55.729 L 100.565 55.729 Z " fill="rgb(255,255,255)"/><path d=" M 110.687 56.313 C 110.08 55.542 109.496 54.794 108.935 54.069 C 108.376 53.343 107.792 52.59 107.184 51.812 C 107.038 51.959 106.892 52.1 106.746 52.238 C 106.6 52.376 106.448 52.513 106.295 52.652 C 106.295 53.285 106.297 53.894 106.301 54.482 C 106.305 55.07 106.307 55.68 106.307 56.313 L 105.396 56.313 L 105.396 47.627 L 106.307 47.627 L 106.307 51.276 C 106.307 51.341 106.303 51.406 106.295 51.471 C 106.287 51.535 106.278 51.604 106.271 51.677 C 106.312 51.62 106.35 51.572 106.387 51.531 C 106.423 51.49 106.462 51.442 106.502 51.385 C 107.15 50.777 107.788 50.153 108.412 49.512 C 109.037 48.871 109.673 48.242 110.322 47.626 L 111.391 47.626 C 110.799 48.227 110.207 48.829 109.615 49.433 C 109.023 50.037 108.427 50.64 107.827 51.24 C 108.509 52.107 109.162 52.953 109.786 53.776 C 110.411 54.599 111.058 55.444 111.731 56.312 L 110.687 56.312 L 110.687 56.313 Z " fill="rgb(255,255,255)"/><rect x="116.399" y="47.628" width="0.839" height="8.687" transform="matrix(1,0,0,1,0,0)" fill="rgb(255,255,255)"/><path d=" M 130.464 47.628 L 130.464 56.715 C 130.23 56.431 129.94 56.093 129.595 55.699 C 129.25 55.305 128.877 54.887 128.476 54.439 C 128.075 53.994 127.661 53.538 127.235 53.071 C 126.81 52.605 126.398 52.148 126.001 51.703 C 125.604 51.258 125.241 50.842 124.912 50.456 C 124.584 50.071 124.314 49.737 124.103 49.453 C 124.079 49.421 124.041 49.374 123.994 49.313 C 123.944 49.251 123.9 49.193 123.86 49.136 L 123.896 49.526 L 123.896 56.313 L 123.068 56.313 L 123.068 47.226 C 123.304 47.527 123.592 47.871 123.933 48.26 C 124.274 48.649 124.645 49.063 125.045 49.5 C 125.447 49.938 125.857 50.389 126.279 50.851 C 126.701 51.313 127.109 51.762 127.502 52.195 C 127.897 52.63 128.263 53.039 128.603 53.424 C 128.943 53.81 129.224 54.144 129.443 54.428 C 129.46 54.469 129.492 54.52 129.541 54.58 C 129.59 54.64 129.635 54.7 129.675 54.756 L 129.639 54.355 L 129.639 47.628 L 130.464 47.628 L 130.464 47.628 Z " fill="rgb(255,255,255)"/><path d=" M 142.654 52.336 L 142.654 55.79 C 142.322 55.984 141.945 56.137 141.523 56.246 C 141.101 56.355 140.66 56.411 140.197 56.411 C 139.516 56.411 138.902 56.3 138.354 56.076 C 137.806 55.852 137.341 55.547 136.956 55.157 C 136.57 54.768 136.272 54.31 136.061 53.783 C 135.85 53.256 135.745 52.688 135.745 52.08 C 135.745 51.423 135.865 50.817 136.104 50.262 C 136.342 49.706 136.667 49.226 137.077 48.821 C 137.487 48.416 137.967 48.099 138.513 47.872 C 139.061 47.645 139.639 47.532 140.246 47.532 C 140.66 47.532 141.08 47.585 141.505 47.69 C 141.931 47.795 142.311 47.949 142.643 48.152 L 142.229 48.834 C 141.962 48.671 141.647 48.544 141.287 48.45 C 140.927 48.356 140.576 48.31 140.235 48.31 C 139.74 48.31 139.272 48.408 138.829 48.602 C 138.388 48.796 137.999 49.06 137.662 49.392 C 137.326 49.725 137.06 50.119 136.865 50.573 C 136.671 51.027 136.573 51.51 136.573 52.02 C 136.573 52.506 136.661 52.969 136.835 53.407 C 137.01 53.845 137.255 54.228 137.571 54.556 C 137.886 54.884 138.268 55.144 138.715 55.334 C 139.16 55.523 139.655 55.62 140.198 55.62 C 140.466 55.62 140.748 55.59 141.044 55.529 C 141.34 55.467 141.622 55.377 141.89 55.255 L 141.89 53.065 L 140.016 53.065 L 140.016 52.336 L 142.654 52.336 L 142.654 52.336 Z " fill="rgb(255,255,255)"/><path d=" M 151.06 56.411 C 150.622 56.411 150.215 56.34 149.838 56.198 C 149.46 56.055 149.134 55.855 148.859 55.595 C 148.584 55.335 148.366 55.017 148.209 54.639 C 148.051 54.263 147.972 53.835 147.972 53.357 L 147.972 47.628 L 148.799 47.628 L 148.799 53.321 C 148.799 53.67 148.856 53.986 148.97 54.269 C 149.081 54.553 149.241 54.794 149.444 54.994 C 149.647 55.192 149.885 55.346 150.162 55.456 C 150.437 55.565 150.737 55.62 151.061 55.62 C 151.378 55.62 151.674 55.565 151.95 55.456 C 152.225 55.346 152.465 55.192 152.668 54.994 C 152.87 54.795 153.031 54.554 153.148 54.269 C 153.265 53.986 153.325 53.669 153.325 53.321 L 153.325 47.628 L 154.151 47.628 L 154.151 53.357 C 154.151 53.836 154.073 54.263 153.915 54.639 C 153.757 55.017 153.538 55.335 153.258 55.595 C 152.979 55.855 152.65 56.055 152.273 56.198 C 151.894 56.34 151.49 56.411 151.06 56.411 Z " fill="rgb(255,255,255)"/><path d=" M 142.36 0.087 C 140.353 2.528 138.387 5.005 136.637 7.608 C 134.881 10.207 133.43 12.988 132.336 15.902 L 131.764 17.427 L 131.098 15.867 L 129.625 12.418 C 129.103 11.264 128.605 10.087 128.123 8.874 L 128.234 8.802 C 129.14 9.745 129.94 10.782 130.62 11.893 C 131.306 13.006 131.935 14.134 132.349 15.429 L 131.111 15.394 C 132.436 12.47 134.096 9.707 136.007 7.161 C 137.912 4.605 140.097 2.302 142.26 0 L 142.36 0.087 L 142.36 0.087 Z " fill="rgb(255,255,255)"/><path d=" M 25.765 34.042 L 16.695 34.042 L 14.975 38.101 L 11.815 38.101 L 19.753 20.117 L 22.861 20.117 L 30.724 38.101 L 27.486 38.101 L 25.765 34.042 L 25.765 34.042 Z  M 24.608 31.345 L 21.216 23.355 L 17.825 31.345 L 24.608 31.345 L 24.608 31.345 Z " fill="rgb(255,255,255)"/><path d=" M 44.799 38.102 L 38.89 30.164 L 35.833 33.529 L 35.833 38.102 L 32.802 38.102 L 32.802 20.118 L 35.833 20.118 L 35.833 29.418 L 44.414 20.118 L 47.985 20.118 L 41.023 27.8 L 48.447 38.102 L 44.799 38.102 Z " fill="rgb(255,255,255)"/><path d=" M 63.5 34.042 L 54.43 34.042 L 52.71 38.101 L 49.55 38.101 L 57.488 20.117 L 60.596 20.117 L 68.458 38.101 L 65.221 38.101 L 63.5 34.042 L 63.5 34.042 Z  M 62.343 31.345 L 58.952 23.355 L 55.561 31.345 L 62.343 31.345 L 62.343 31.345 Z " fill="rgb(255,255,255)"/><path d=" M 87.209 29.11 C 87.209 34.3 83.278 38.102 77.834 38.102 L 70.537 38.102 L 70.537 20.118 L 77.911 20.118 C 83.306 20.118 87.209 23.895 87.209 29.11 Z  M 84.153 29.136 C 84.153 25.462 81.404 22.842 77.859 22.842 L 73.568 22.842 L 73.568 35.378 L 77.986 35.378 C 81.482 35.378 84.153 32.784 84.153 29.136 Z " fill="rgb(255,255,255)"/><path d=" M 103.15 20.118 L 103.15 22.842 L 93.334 22.842 L 93.334 27.723 L 102.121 27.723 L 102.121 30.421 L 93.334 30.421 L 93.334 35.378 L 103.458 35.378 L 103.458 38.102 L 90.303 38.102 L 90.303 20.118 L 103.15 20.118 Z " fill="rgb(255,255,255)"/><path d=" M 110.365 20.118 L 116.299 32.065 L 122.209 20.118 L 125.781 20.118 L 125.781 38.102 L 122.979 38.102 L 122.955 24.666 L 117.277 36.227 L 115.297 36.227 L 109.621 24.666 L 109.621 38.102 L 106.769 38.102 L 106.769 20.118 L 110.365 20.118 Z " fill="rgb(255,255,255)"/><rect x="130.19" y="20.117" width="3.031" height="17.984" transform="matrix(1,0,0,1,0,0)" fill="rgb(255,255,255)"/><path d=" M 149.192 34.042 L 140.126 34.042 L 138.402 38.101 L 135.242 38.101 L 143.18 20.117 L 146.288 20.117 L 154.149 38.101 L 150.915 38.101 L 149.192 34.042 L 149.192 34.042 Z  M 148.038 31.345 L 144.644 23.355 L 141.255 31.345 L 148.038 31.345 L 148.038 31.345 Z " fill="rgb(255,255,255)"/><path d=" M 166.473 64.756 L 0 64.756 L 0 12.865 L 114.978 12.865 C 115.185 12.865 115.354 13.034 115.354 13.242 C 115.354 13.45 115.185 13.619 114.978 13.619 L 0.752 13.619 L 0.752 64.002 L 165.721 64.002 L 165.721 13.619 L 152.566 13.619 C 152.358 13.619 152.19 13.45 152.19 13.242 C 152.19 13.034 152.358 12.865 152.566 12.865 L 166.473 12.865 L 166.473 64.756 L 166.473 64.756 Z " fill="rgb(255,255,255)"/></g></svg>