<?xml version="1.0" encoding="utf-8"?>
<!-- Generator: Adobe Illustrator 16.0.0, SVG Export Plug-In . SVG Version: 6.00 Build 0)  -->
<!DOCTYPE svg PUBLIC "-//W3C//DTD SVG 1.1//EN" "http://www.w3.org/Graphics/SVG/1.1/DTD/svg11.dtd">
<svg version="1.1" id="Warstwa_1" xmlns="http://www.w3.org/2000/svg" xmlns:xlink="http://www.w3.org/1999/xlink" x="0px" y="0px"
	 width="122.773px" height="25.199px" viewBox="0 0 122.773 25.199" enable-background="new 0 0 122.773 25.199"
	 xml:space="preserve">
<g>
	<path fill="#E55034" d="M63.193,3.813h-6.637c-1.777,0-3.23,1.452-3.23,3.228v5.165c0,1.775,1.453,3.229,3.23,3.229h1.391
		l-0.465,2.017c-0.039,0.161,0.143,0.262,0.262,0.182l3.008-2.18h2.422c1.773,0,3.227-1.451,3.227-3.228V7.062
		C66.421,5.246,64.968,3.813,63.193,3.813z M60.63,13.073c0,0.122-0.141,0.202-0.244,0.122L58.107,11.3
		c-0.18-0.162-0.424-0.244-0.664-0.244h-1.594c-0.182,0-0.344-0.161-0.344-0.342V8.373c0-0.183,0.162-0.344,0.344-0.344h1.594
		c0.24,0,0.463-0.08,0.664-0.241l2.279-1.896c0.104-0.081,0.244-0.021,0.244,0.121V13.073z M61.902,11.259
		c-0.061,0.06-0.162,0.101-0.244,0.101c-0.1,0-0.201-0.041-0.262-0.121c-0.141-0.142-0.121-0.362,0.021-0.506
		c0.322-0.302,0.523-0.726,0.523-1.169s-0.182-0.867-0.523-1.17c-0.143-0.121-0.162-0.364-0.021-0.505
		c0.121-0.141,0.363-0.161,0.506-0.02c0.484,0.424,0.746,1.049,0.746,1.694C62.667,10.208,62.386,10.835,61.902,11.259z
		 M62.99,12.448c-0.059,0.062-0.16,0.102-0.24,0.102c-0.102,0-0.203-0.04-0.262-0.122c-0.143-0.141-0.123-0.363,0.02-0.503
		c0.666-0.606,1.049-1.454,1.049-2.342c0-0.887-0.383-1.755-1.049-2.36c-0.143-0.12-0.162-0.362-0.02-0.504
		c0.119-0.141,0.361-0.162,0.502-0.021c0.809,0.727,1.271,1.775,1.271,2.885C64.261,10.653,63.798,11.702,62.99,12.448z"/>
</g>
<g>
	<path fill="#FFFFFF" d="M5.307,4.963V0.646c0-0.626,0.606-0.626,0.606-0.626h0.806c0.323,0,0.565,0.262,0.565,0.626v13.82
		c0,0.362-0.262,0.625-0.585,0.625H5.952c-0.322,0-0.585-0.263-0.585-0.625v-0.202c-0.585,0.706-1.19,0.969-2.058,0.969
		c-2.018,0-3.249-1.252-3.249-3.653V7.929c0-2.098,0.929-3.792,3.289-3.792C3.896,4.156,4.863,4.419,5.307,4.963z M1.998,7.808
		v3.955c0,1.311,0.646,1.674,1.493,1.674c1.049,0,1.815-0.483,1.815-1.674V7.808c0-1.433-0.948-1.836-1.715-1.836
		C2.523,5.972,1.998,6.557,1.998,7.808z"/>
	<path fill="#FFFFFF" d="M17.15,7.264v1.452c0,0.545-0.282,1.049-1.029,1.19l-4.257,0.808v1.049c0.02,0.908,0.646,1.674,1.655,1.674
		c1.25,0,1.653-0.826,1.653-1.634c0-0.646,0.626-0.646,0.626-0.646h0.665c0.404,0,0.666,0.203,0.666,0.667
		c0,1.896-1.372,3.43-3.632,3.43c-2.138,0-3.632-1.493-3.632-3.49V7.949c0-2.159,1.332-3.773,3.773-3.773
		C15.656,4.156,17.15,5.347,17.15,7.264z M11.884,7.767v1.07l3.33-0.646V7.264c0-0.868-0.667-1.292-1.615-1.292
		C12.328,5.972,11.884,6.799,11.884,7.767z"/>
	<path fill="#FFFFFF" d="M21.146,4.317c0.323,0,0.585,0.263,0.585,0.625v0.143c0.524-0.869,1.554-0.929,1.978-0.929
		c0.604,0,1.352,0.242,1.896,1.029c0.564-0.868,1.635-1.029,2.32-1.029c1.694,0,3.207,0.745,3.207,3.772v6.538
		c0,0.625-0.604,0.625-0.604,0.625h-0.727c0,0-0.626,0-0.626-0.625V7.929c0-1.049-0.181-1.957-1.25-1.957
		c-0.606,0-1.332,0.625-1.332,1.332v7.163c0,0.625-0.605,0.625-0.605,0.625h-0.746c0,0-0.605,0-0.605-0.625V7.304
		c0-0.585-0.303-1.332-1.231-1.332c-1.25,0-1.674,1.109-1.674,1.957v6.538c0,0.625-0.626,0.625-0.626,0.625h-0.727
		c0,0-0.604,0-0.604-0.625V4.942c0-0.362,0.262-0.625,0.584-0.625H21.146z"/>
	<path fill="#FFFFFF" d="M40.796,7.989v6.497c0,0.364-0.262,0.626-0.584,0.626h-0.748c-0.322,0-0.584-0.262-0.584-0.626v-0.202
		c-0.383,0.585-1.311,0.969-2.159,0.969c-1.695,0-3.128-1.352-3.128-3.106c0-1.676,0.646-2.603,2.683-3.108l2.563-0.625V7.505
		c0-0.908-0.666-1.533-1.553-1.533c-0.988,0-1.452,0.506-1.452,1.131c0,0.384-0.263,0.625-0.585,0.625h-0.808
		c-0.323,0-0.585-0.241-0.585-0.625c0-1.796,1.452-2.927,3.409-2.927C39.123,4.156,40.796,5.387,40.796,7.989z M35.551,12.064
		c0,0.687,0.564,1.372,1.372,1.372c1.131,0,1.897-1.049,1.897-2.058V10.31l-2.26,0.545C35.691,11.037,35.551,11.662,35.551,12.064z"
		/>
	<path fill="#FFFFFF" d="M48.462,4.156c0.748,0,0.971-0.102,1.172-0.282l0.303-0.283c0.242-0.262,0.605-0.241,0.867-0.02
		l0.445,0.403c0.24,0.241,0.262,0.605,0,0.867l-0.203,0.243c-0.303,0.362-0.746,0.664-1.271,0.766
		c0.666,0.646,0.688,1.372,0.688,2.239v0.585c0,1.896-1.555,3.431-3.693,3.431c-0.443,0-0.949-0.12-1.17-0.242l-0.688,0.868
		c-0.281,0.363-0.08,0.524,0.406,0.504l3.348-0.101c1.514-0.062,2.422,0.987,2.422,2.623c0,1.068-0.625,3.975-3.875,3.975
		c-2.4,0-3.852-1.009-3.852-2.482c0-1.331,0.645-2.399,0.645-2.399c-0.666-0.062-1.068-0.586-1.15-1.111
		c-0.061-0.483,0.182-1.169,0.584-1.675l0.748-0.947c-0.93-0.929-0.949-1.877-0.949-2.562V8.111c0-2.301,1.232-3.955,3.531-3.955
		H48.462z M45.841,14.971c-0.404,0.565-0.646,1.19-0.646,1.896c0,0.705,0.768,1.09,1.836,1.09c1.191,0,2.262-0.726,2.221-2.079
		c-0.021-0.686-0.404-1.027-1.029-1.009L45.841,14.971z M45.214,8.111v0.563c0,0.728,0.506,1.635,1.574,1.635
		c0.908,0,1.715-0.705,1.715-1.635V8.111c0-1.131-0.32-2.14-1.652-2.14C45.619,5.972,45.214,7.122,45.214,8.111z"/>
	<path fill="#FFFFFF" d="M73.765,4.156c0.746,0,0.969-0.102,1.17-0.282l0.303-0.283c0.242-0.262,0.605-0.241,0.867-0.02l0.445,0.403
		c0.242,0.241,0.262,0.605,0,0.867l-0.203,0.243c-0.303,0.362-0.746,0.664-1.271,0.766c0.668,0.646,0.686,1.372,0.686,2.239v0.585
		c0,1.896-1.553,3.431-3.691,3.431c-0.445,0-0.947-0.12-1.17-0.242l-0.686,0.868c-0.283,0.363-0.082,0.524,0.402,0.504l3.35-0.101
		c1.514-0.062,2.422,0.987,2.422,2.623c0,1.068-0.627,3.975-3.875,3.975c-2.4,0-3.854-1.009-3.854-2.482
		c0-1.331,0.646-2.399,0.646-2.399c-0.666-0.062-1.07-0.586-1.15-1.111c-0.061-0.483,0.182-1.169,0.586-1.675l0.746-0.947
		c-0.93-0.929-0.949-1.877-0.949-2.562V8.111c0-2.301,1.23-3.955,3.531-3.955H73.765z M71.142,14.971
		c-0.404,0.565-0.646,1.19-0.646,1.896c0,0.705,0.768,1.09,1.836,1.09c1.191,0,2.26-0.726,2.221-2.079
		c-0.021-0.686-0.404-1.027-1.029-1.009L71.142,14.971z M70.515,8.111v0.563c0,0.728,0.506,1.635,1.574,1.635
		c0.908,0,1.715-0.705,1.715-1.635V8.111c0-1.131-0.322-2.14-1.652-2.14C70.919,5.972,70.515,7.122,70.515,8.111z"/>
	<path fill="#FFFFFF" d="M79.556,12.852c0.322,0,0.586,0.263,0.586,0.626v0.989c0,0.362-0.264,0.625-0.586,0.625h-1.07
		c-0.322,0-0.584-0.263-0.584-0.625v-0.989c0-0.363,0.262-0.626,0.584-0.626H79.556z"/>
	<path fill="#FFFFFF" d="M85.265,15.253c-2.158,0-3.59-1.393-3.59-3.853V8.172c0-2.847,1.473-3.996,3.631-3.996
		s3.633,1.149,3.633,3.996V11.4c0,2.46-1.455,3.853-3.594,3.853H85.265z M83.632,8.151v3.228c0,1.03,0.301,2.058,1.633,2.058
		c1.371,0,1.674-1.009,1.674-2.058V8.151c0-1.19-0.322-2.18-1.654-2.18C83.955,5.972,83.632,6.961,83.632,8.151z"/>
	<path fill="#FFFFFF" d="M96.058,4.741v0.625c0,0.323-0.262,0.605-0.625,0.605c-1.936,0-2.279,0.948-2.279,1.816v6.679
		c0,0.362-0.262,0.625-0.586,0.625h-0.805c-0.324,0-0.586-0.263-0.586-0.625V4.942c0-0.362,0.262-0.625,0.586-0.625h0.805
		c0.324,0,0.586,0.263,0.586,0.625v0.121c0.666-0.665,1.01-0.907,2.279-0.907C95.796,4.156,96.058,4.419,96.058,4.741z"/>
	<path fill="#FFFFFF" d="M101.628,4.156c0.746,0,0.969-0.102,1.17-0.282l0.303-0.283c0.242-0.262,0.605-0.241,0.867-0.02
		l0.445,0.403c0.24,0.241,0.262,0.605,0,0.867l-0.203,0.243c-0.303,0.362-0.746,0.664-1.271,0.766
		c0.666,0.646,0.688,1.372,0.688,2.239v0.585c0,1.896-1.555,3.431-3.693,3.431c-0.443,0-0.947-0.12-1.17-0.242l-0.686,0.868
		c-0.283,0.363-0.08,0.524,0.402,0.504l3.35-0.101c1.514-0.062,2.422,0.987,2.422,2.623c0,1.068-0.625,3.975-3.873,3.975
		c-2.402,0-3.855-1.009-3.855-2.482c0-1.331,0.646-2.399,0.646-2.399c-0.666-0.062-1.07-0.586-1.15-1.111
		c-0.061-0.483,0.182-1.169,0.586-1.675l0.746-0.947c-0.928-0.929-0.947-1.877-0.947-2.562V8.111c0-2.301,1.229-3.955,3.529-3.955
		H101.628z M98.986,14.971c-0.404,0.565-0.646,1.19-0.646,1.896c0,0.705,0.768,1.09,1.836,1.09c1.189,0,2.26-0.726,2.221-2.079
		c-0.021-0.686-0.406-1.027-1.031-1.009L98.986,14.971z M98.361,8.111v0.563c0,0.728,0.504,1.635,1.572,1.635
		c0.908,0,1.715-0.705,1.715-1.635V8.111c0-1.131-0.322-2.14-1.654-2.14C98.783,5.972,98.361,7.122,98.361,8.111z"/>
	<path fill="#FFFFFF" d="M107.398,12.852c0.322,0,0.586,0.263,0.586,0.626v0.989c0,0.362-0.264,0.625-0.586,0.625h-1.068
		c-0.324,0-0.586-0.263-0.586-0.625v-0.989c0-0.363,0.262-0.626,0.586-0.626H107.398z"/>
	<path fill="#FFFFFF" d="M110.789,4.317c0.322,0,0.584,0.263,0.584,0.625v0.121c0.305-0.442,1.07-0.907,1.979-0.907
		c2.018,0,3.289,1.271,3.289,3.772v3.651c0,2.079-1.332,3.673-3.209,3.673c-0.807,0-1.754-0.343-2.119-0.969v4.762
		c0,0.364-0.262,0.627-0.584,0.627h-0.746c-0.322,0-0.586-0.263-0.586-0.627V4.942c0-0.362,0.264-0.625,0.586-0.625H110.789z
		 M111.353,7.788v3.894c0,1.009,0.707,1.755,1.816,1.755c0.906,0,1.533-0.544,1.533-1.755V7.788c0-1.049-0.443-1.816-1.613-1.816
		C111.796,5.972,111.353,6.92,111.353,7.788z"/>
	<path fill="#FFFFFF" d="M119.626,0c0.322,0,0.604,0.263,0.604,0.625v11.178c0,0.827,0.102,1.634,1.494,1.634h0.424
		c0.361,0,0.625,0.262,0.625,0.585v0.626c0,0.323-0.264,0.605-0.625,0.605h-0.424c-2.32,0-3.451-1.311-3.451-3.45V0.625
		c0-0.362,0.262-0.625,0.586-0.625H119.626z"/>
</g>
<g>
	<rect x="0.021" y="18.521" fill="#FFFFFF" width="41.12" height="0.807"/>
</g>
<g>
	<rect x="53.326" y="18.521" fill="#FFFFFF" width="13.074" height="0.807"/>
</g>
<g>
	<path fill="#FFFFFF" d="M0,21.81h0.262l0.082,0.283h0.021c0.08-0.122,0.16-0.201,0.281-0.262C0.768,21.77,0.889,21.75,1.05,21.75
		c0.322,0,0.565,0.101,0.706,0.282c0.161,0.183,0.242,0.506,0.242,0.929c0,0.202-0.021,0.383-0.081,0.543
		c-0.061,0.162-0.122,0.305-0.223,0.405c-0.101,0.121-0.201,0.201-0.342,0.263c-0.142,0.061-0.283,0.101-0.444,0.101
		c-0.121,0-0.223,0-0.282-0.021c-0.061-0.019-0.142-0.04-0.223-0.079v0.987H0.021v-3.35H0z M0.969,22.093
		c-0.161,0-0.283,0.04-0.384,0.122c-0.101,0.079-0.161,0.221-0.201,0.383v1.19c0.061,0.039,0.122,0.08,0.201,0.101
		c0.082,0.021,0.162,0.039,0.283,0.039c0.223,0,0.402-0.079,0.524-0.241c0.122-0.161,0.201-0.403,0.201-0.726
		c0-0.121-0.02-0.243-0.039-0.363c-0.021-0.101-0.062-0.203-0.102-0.282c-0.041-0.082-0.121-0.142-0.201-0.183
		C1.17,22.114,1.069,22.093,0.969,22.093z"/>
	<path fill="#FFFFFF" d="M2.463,23.021c0-0.403,0.079-0.727,0.262-0.928c0.182-0.223,0.443-0.323,0.786-0.323
		c0.182,0,0.344,0.021,0.464,0.081c0.142,0.061,0.243,0.142,0.323,0.264c0.08,0.101,0.142,0.24,0.201,0.402
		C4.54,22.678,4.56,22.84,4.56,23.041c0,0.403-0.079,0.727-0.262,0.928c-0.182,0.223-0.443,0.323-0.787,0.323
		c-0.181,0-0.343-0.02-0.463-0.081c-0.142-0.061-0.244-0.14-0.323-0.262c-0.081-0.101-0.142-0.242-0.183-0.404
		C2.482,23.364,2.463,23.202,2.463,23.021z M2.845,23.021c0,0.121,0.021,0.243,0.041,0.344c0.021,0.121,0.062,0.201,0.121,0.283
		c0.061,0.079,0.12,0.141,0.202,0.201c0.08,0.061,0.181,0.079,0.302,0.079c0.444,0,0.646-0.302,0.646-0.927
		c0-0.122-0.021-0.242-0.041-0.362c-0.02-0.122-0.06-0.203-0.12-0.284c-0.062-0.08-0.122-0.14-0.202-0.201
		c-0.081-0.061-0.183-0.08-0.303-0.08C3.067,22.093,2.845,22.395,2.845,23.021z"/>
	<path fill="#FFFFFF" d="M5.59,23.626c0,0.122,0.02,0.201,0.061,0.242c0.04,0.041,0.101,0.081,0.16,0.081c0.041,0,0.081,0,0.142,0
		c0.04,0,0.102-0.021,0.162-0.04l0.04,0.302c-0.062,0.021-0.121,0.04-0.223,0.062c-0.101,0.02-0.161,0.02-0.241,0.02
		c-0.142,0-0.262-0.041-0.363-0.12c-0.101-0.082-0.142-0.223-0.142-0.424v-2.865h0.383v2.743H5.59z"/>
	<path fill="#FFFFFF" d="M6.558,21.084c0-0.081,0.02-0.141,0.081-0.182c0.04-0.061,0.121-0.081,0.182-0.081
		c0.08,0,0.142,0.021,0.202,0.081c0.06,0.06,0.079,0.121,0.079,0.182c0,0.081-0.02,0.141-0.079,0.182
		c-0.061,0.041-0.122,0.08-0.202,0.08c-0.081,0-0.142-0.02-0.182-0.08C6.577,21.225,6.558,21.165,6.558,21.084z M6.639,21.81h0.384
		v2.401H6.639V21.81z"/>
	<path fill="#FFFFFF" d="M7.525,21.81h0.384v-0.464l0.384-0.101v0.586h0.646v0.343H8.293v1.33c0,0.162,0.021,0.284,0.061,0.345
		c0.041,0.061,0.12,0.101,0.202,0.101c0.079,0,0.161,0,0.201-0.021c0.061-0.019,0.122-0.039,0.182-0.06L9.02,24.15
		c-0.081,0.041-0.182,0.082-0.282,0.101c-0.103,0.021-0.223,0.041-0.323,0.041c-0.202,0-0.323-0.06-0.404-0.161
		c-0.08-0.101-0.12-0.304-0.12-0.545v-1.433H7.525V21.81z"/>
	<path fill="#FFFFFF" d="M10.17,23.364l0.14,0.463h0.021l0.101-0.463l0.464-1.555h0.384l-0.707,2.159
		c-0.06,0.162-0.101,0.304-0.161,0.465c-0.061,0.141-0.121,0.282-0.181,0.383c-0.061,0.12-0.142,0.202-0.223,0.282
		c-0.08,0.061-0.183,0.101-0.283,0.101c-0.12,0-0.201-0.019-0.282-0.04l0.062-0.323c0.041,0.021,0.08,0.021,0.12,0.021
		c0.081,0,0.183-0.041,0.263-0.142c0.082-0.101,0.142-0.263,0.202-0.483L9.12,21.831h0.443L10.17,23.364z"/>
	<path fill="#FFFFFF" d="M13.275,24.05c-0.101,0.061-0.201,0.122-0.341,0.161c-0.122,0.04-0.263,0.062-0.405,0.062
		c-0.181,0-0.342-0.021-0.464-0.081c-0.12-0.061-0.241-0.142-0.323-0.264c-0.079-0.101-0.14-0.241-0.181-0.402
		s-0.06-0.323-0.06-0.524c0-0.403,0.079-0.727,0.262-0.928c0.182-0.223,0.443-0.323,0.766-0.323c0.161,0,0.283,0.02,0.384,0.041
		c0.101,0.019,0.201,0.06,0.283,0.101l-0.101,0.323c-0.082-0.041-0.161-0.082-0.243-0.101c-0.08-0.021-0.181-0.041-0.282-0.041
		c-0.443,0-0.687,0.303-0.687,0.928c0,0.121,0.021,0.241,0.041,0.343c0.021,0.101,0.061,0.201,0.121,0.282
		c0.06,0.081,0.12,0.162,0.221,0.201c0.103,0.062,0.203,0.082,0.345,0.082c0.12,0,0.221-0.021,0.302-0.061s0.161-0.081,0.223-0.122
		L13.275,24.05z"/>
	<path fill="#FFFFFF" d="M14.446,23.364l0.142,0.463h0.02l0.101-0.463l0.465-1.555h0.383l-0.706,2.159
		c-0.06,0.162-0.101,0.304-0.161,0.465c-0.06,0.141-0.101,0.282-0.182,0.383c-0.061,0.12-0.141,0.202-0.222,0.282
		c-0.08,0.061-0.181,0.101-0.282,0.101c-0.121,0-0.203-0.019-0.282-0.04l0.061-0.323c0.04,0.021,0.08,0.021,0.121,0.021
		c0.08,0,0.181-0.041,0.262-0.142s0.162-0.263,0.202-0.483l-0.969-2.401h0.443L14.446,23.364z"/>
	<path fill="#FFFFFF" d="M17.089,21.81h0.263l0.082,0.283h0.02c0.081-0.122,0.161-0.201,0.282-0.262
		c0.121-0.062,0.242-0.081,0.403-0.081c0.323,0,0.565,0.101,0.706,0.282c0.161,0.183,0.242,0.506,0.242,0.929
		c0,0.202-0.02,0.383-0.081,0.543c-0.061,0.162-0.12,0.305-0.222,0.405c-0.101,0.121-0.202,0.201-0.342,0.263
		c-0.142,0.061-0.283,0.101-0.445,0.101c-0.12,0-0.201,0-0.282-0.021c-0.06-0.019-0.142-0.04-0.221-0.079v0.987H17.11v-3.35H17.089z
		 M18.059,22.093c-0.162,0-0.283,0.04-0.385,0.122c-0.101,0.079-0.161,0.221-0.201,0.383v1.19c0.062,0.039,0.122,0.08,0.201,0.101
		c0.082,0.021,0.162,0.039,0.283,0.039c0.223,0,0.403-0.079,0.524-0.241c0.122-0.161,0.202-0.403,0.202-0.726
		c0-0.121-0.021-0.243-0.04-0.363c-0.021-0.101-0.062-0.203-0.101-0.282c-0.04-0.082-0.122-0.142-0.183-0.183
		C18.26,22.114,18.159,22.093,18.059,22.093z"/>
	<path fill="#FFFFFF" d="M19.552,23.021c0-0.403,0.079-0.727,0.262-0.928c0.182-0.223,0.444-0.323,0.787-0.323
		c0.181,0,0.343,0.021,0.463,0.081c0.144,0.061,0.244,0.142,0.323,0.264c0.082,0.119,0.142,0.24,0.202,0.402
		c0.041,0.161,0.061,0.323,0.061,0.524c0,0.403-0.08,0.727-0.263,0.928c-0.18,0.223-0.443,0.323-0.786,0.323
		c-0.182,0-0.343-0.02-0.464-0.081c-0.142-0.061-0.242-0.14-0.323-0.262c-0.08-0.101-0.142-0.242-0.183-0.404
		C19.571,23.364,19.552,23.202,19.552,23.021z M19.935,23.021c0,0.121,0.02,0.243,0.041,0.344c0.02,0.121,0.061,0.201,0.12,0.283
		c0.061,0.079,0.121,0.141,0.202,0.201c0.08,0.061,0.181,0.079,0.303,0.079c0.444,0,0.646-0.302,0.646-0.927
		c0-0.122-0.021-0.242-0.039-0.362c-0.021-0.122-0.062-0.203-0.122-0.284c-0.061-0.08-0.122-0.14-0.201-0.201
		c-0.082-0.061-0.183-0.08-0.304-0.08C20.156,22.093,19.935,22.395,19.935,23.021z"/>
	<path fill="#FFFFFF" d="M24.091,23.385c0,0.16,0,0.302,0,0.442c0,0.142,0.021,0.263,0.041,0.384h-0.263l-0.102-0.343h-0.019
		c-0.062,0.121-0.162,0.203-0.283,0.282c-0.122,0.082-0.263,0.101-0.424,0.101c-0.323,0-0.564-0.101-0.707-0.302
		c-0.162-0.201-0.241-0.524-0.241-0.948c0-0.403,0.101-0.727,0.282-0.928c0.202-0.223,0.465-0.323,0.807-0.323
		c0.121,0,0.202,0,0.283,0.02c0.061,0.021,0.14,0.04,0.222,0.062v-0.989h0.383v2.543H24.091z M23.122,23.928
		c0.162,0,0.282-0.039,0.383-0.119c0.101-0.082,0.162-0.223,0.203-0.384v-1.191c-0.062-0.04-0.121-0.08-0.203-0.101
		c-0.079-0.019-0.161-0.019-0.281-0.019c-0.222,0-0.383,0.079-0.524,0.221c-0.121,0.142-0.182,0.383-0.182,0.706
		c0,0.122,0.02,0.262,0.04,0.362c0.021,0.122,0.061,0.203,0.101,0.283c0.041,0.081,0.121,0.141,0.183,0.182
		C22.92,23.909,23.002,23.928,23.122,23.928z"/>
	<path fill="#FFFFFF" d="M26.715,23.122h-0.223v1.069h-0.384v-3.35h0.384v2.037l0.201-0.061l0.747-1.009h0.443l-0.727,0.969
		l-0.201,0.162l0.242,0.201l0.806,1.091h-0.503L26.715,23.122z"/>
	<path fill="#FFFFFF" d="M28.207,23.021c0-0.403,0.08-0.727,0.262-0.928c0.182-0.223,0.443-0.323,0.788-0.323
		c0.18,0,0.342,0.021,0.463,0.081c0.141,0.061,0.242,0.142,0.323,0.264c0.081,0.101,0.141,0.24,0.201,0.402
		c0.04,0.161,0.062,0.323,0.062,0.524c0,0.403-0.081,0.727-0.263,0.928c-0.183,0.223-0.444,0.323-0.786,0.323
		c-0.183,0-0.345-0.02-0.465-0.081c-0.142-0.061-0.242-0.14-0.323-0.262c-0.081-0.101-0.142-0.242-0.182-0.404
		C28.227,23.364,28.207,23.202,28.207,23.021z M28.61,23.021c0,0.121,0.021,0.243,0.04,0.344c0.021,0.121,0.061,0.201,0.122,0.283
		c0.061,0.079,0.12,0.141,0.201,0.201c0.08,0.061,0.183,0.079,0.302,0.079c0.444,0,0.646-0.302,0.646-0.927
		c0-0.122-0.021-0.242-0.04-0.362c-0.021-0.122-0.062-0.203-0.122-0.284c-0.06-0.08-0.12-0.14-0.201-0.201
		c-0.081-0.061-0.182-0.08-0.302-0.08C28.833,22.093,28.61,22.395,28.61,23.021z"/>
	<path fill="#FFFFFF" d="M32.443,24.211V22.84c0-0.242-0.041-0.445-0.101-0.565c-0.06-0.121-0.202-0.182-0.403-0.182
		c-0.162,0-0.302,0.04-0.424,0.141c-0.101,0.102-0.182,0.202-0.241,0.344v1.634h-0.384V21.81h0.262l0.081,0.283h0.02
		c0.081-0.101,0.182-0.182,0.303-0.242c0.121-0.06,0.283-0.101,0.464-0.101c0.121,0,0.243,0.02,0.344,0.041
		c0.101,0.04,0.183,0.079,0.242,0.161c0.061,0.08,0.12,0.181,0.142,0.302c0.02,0.122,0.039,0.303,0.039,0.485v1.452h-0.343V24.211z"
		/>
	<path fill="#FFFFFF" d="M33.21,21.81h0.384v-0.464l0.385-0.101v0.586h0.645v0.343h-0.645v1.33c0,0.162,0.019,0.284,0.06,0.345
		s0.12,0.101,0.202,0.101c0.079,0,0.161,0,0.201-0.021c0.061-0.019,0.121-0.039,0.182-0.06l0.081,0.282
		c-0.081,0.041-0.182,0.082-0.283,0.101c-0.102,0.021-0.222,0.041-0.322,0.041c-0.202,0-0.323-0.06-0.404-0.161
		c-0.08-0.101-0.121-0.304-0.121-0.545v-1.433H33.19V21.81H33.21z"/>
	<path fill="#FFFFFF" d="M36.276,22.174c-0.101-0.041-0.18-0.041-0.281-0.041c-0.142,0-0.243,0.041-0.322,0.121
		c-0.082,0.081-0.122,0.162-0.143,0.284v1.673h-0.383V21.81h0.262l0.081,0.283h0.021c0.06-0.101,0.14-0.201,0.221-0.242
		c0.081-0.06,0.202-0.081,0.323-0.081c0.101,0,0.202,0.021,0.303,0.04L36.276,22.174z"/>
	<path fill="#FFFFFF" d="M36.641,23.021c0-0.403,0.081-0.727,0.263-0.928c0.181-0.223,0.443-0.323,0.786-0.323
		c0.182,0,0.344,0.021,0.465,0.081c0.141,0.061,0.242,0.142,0.324,0.264c0.078,0.101,0.139,0.24,0.201,0.402
		c0.039,0.161,0.061,0.323,0.061,0.524c0,0.403-0.082,0.727-0.262,0.928c-0.184,0.223-0.445,0.323-0.789,0.323
		c-0.182,0-0.342-0.02-0.463-0.081c-0.142-0.061-0.242-0.14-0.322-0.262c-0.081-0.101-0.142-0.242-0.182-0.404
		C36.661,23.364,36.641,23.202,36.641,23.021z M37.045,23.021c0,0.121,0.02,0.243,0.039,0.344c0.021,0.121,0.062,0.201,0.122,0.283
		c0.06,0.079,0.12,0.141,0.201,0.201c0.081,0.061,0.182,0.079,0.301,0.079c0.445,0,0.646-0.302,0.646-0.927
		c0-0.122-0.02-0.242-0.039-0.362c-0.021-0.122-0.061-0.203-0.121-0.284c-0.062-0.08-0.121-0.14-0.203-0.201
		c-0.08-0.061-0.182-0.08-0.303-0.08C37.266,22.093,37.045,22.395,37.045,23.021z"/>
	<path fill="#FFFFFF" d="M39.789,23.626c0,0.122,0.02,0.201,0.061,0.242c0.039,0.041,0.1,0.081,0.162,0.081c0.039,0,0.078,0,0.139,0
		c0.041,0,0.102-0.021,0.162-0.04l0.041,0.302c-0.061,0.021-0.121,0.04-0.223,0.062c-0.1,0.02-0.16,0.02-0.242,0.02
		c-0.141,0-0.262-0.041-0.363-0.12c-0.1-0.082-0.139-0.223-0.139-0.424v-2.865h0.383v2.743H39.789z"/>
	<path fill="#FFFFFF" d="M40.716,21.992c0.121-0.081,0.262-0.122,0.424-0.161c0.162-0.04,0.322-0.062,0.504-0.062
		c0.162,0,0.303,0.021,0.404,0.062c0.1,0.039,0.182,0.101,0.221,0.181c0.061,0.081,0.082,0.142,0.102,0.242
		c0.02,0.081,0.02,0.182,0.02,0.263c0,0.182,0,0.384-0.02,0.564c0,0.183-0.02,0.363-0.02,0.525c0,0.12,0,0.221,0.02,0.343
		c0,0.101,0.02,0.201,0.061,0.283H42.33c-0.08,0.06-0.141,0.119-0.182,0.181c-0.041,0.061-0.061,0.141-0.061,0.222
		c0,0.062,0.02,0.122,0.061,0.162c0.041,0.039,0.102,0.08,0.182,0.08c0.061,0,0.123-0.02,0.182-0.041l0.061,0.203
		c-0.041,0.041-0.119,0.06-0.182,0.08c-0.08,0.021-0.16,0.021-0.221,0.021c-0.141,0-0.264-0.041-0.344-0.121
		c-0.08-0.082-0.121-0.183-0.121-0.303c0-0.121,0.041-0.242,0.121-0.323c0.08-0.101,0.203-0.16,0.344-0.221l-0.082-0.283h-0.059
		c-0.021,0.039-0.061,0.08-0.102,0.142c-0.041,0.041-0.102,0.08-0.162,0.12c-0.061,0.041-0.121,0.061-0.201,0.082
		c-0.082,0.019-0.162,0.04-0.283,0.04c-0.1,0-0.201-0.021-0.283-0.04c-0.078-0.041-0.16-0.082-0.221-0.143
		c-0.061-0.06-0.121-0.121-0.141-0.222c-0.041-0.08-0.062-0.182-0.062-0.282c0-0.142,0.021-0.262,0.082-0.344
		c0.061-0.101,0.141-0.161,0.242-0.222c0.1-0.06,0.223-0.101,0.383-0.12c0.141-0.021,0.303-0.041,0.484-0.041
		c0.041,0,0.08,0,0.141,0c0.041,0,0.082,0,0.143,0c0-0.101,0.02-0.182,0.02-0.262c0-0.182-0.039-0.304-0.1-0.364
		c-0.062-0.06-0.203-0.101-0.385-0.101c-0.061,0-0.121,0-0.182,0c-0.059,0-0.121,0.021-0.182,0.041
		c-0.061,0.02-0.121,0.041-0.182,0.041c-0.061,0.019-0.102,0.039-0.16,0.06L40.716,21.992z M41.402,23.909
		c0.08,0,0.162-0.021,0.242-0.041c0.061-0.02,0.121-0.06,0.182-0.101s0.102-0.081,0.121-0.12c0.041-0.041,0.061-0.082,0.082-0.122
		v-0.403c-0.041,0-0.082,0-0.143,0s-0.102,0-0.141,0c-0.102,0-0.201,0-0.283,0.02c-0.102,0.021-0.182,0.041-0.242,0.061
		c-0.08,0.04-0.121,0.081-0.182,0.122c-0.041,0.061-0.061,0.12-0.061,0.201c0,0.122,0.041,0.201,0.121,0.283
		C41.16,23.868,41.261,23.909,41.402,23.909z"/>
</g>
<path fill="#FFFFFF" d="M60.63,13.073c0,0.122-0.141,0.202-0.244,0.122L58.107,11.3c-0.18-0.162-0.424-0.244-0.664-0.244h-1.594
	c-0.182,0-0.344-0.161-0.344-0.342V8.373c0-0.183,0.162-0.344,0.344-0.344h1.594c0.24,0,0.463-0.08,0.664-0.241l2.279-1.896
	c0.104-0.081,0.244-0.021,0.244,0.121V13.073z"/>
<path fill="#FFFFFF" d="M61.902,11.259c-0.061,0.06-0.162,0.101-0.244,0.101c-0.1,0-0.201-0.041-0.262-0.121
	c-0.141-0.142-0.121-0.362,0.021-0.506c0.322-0.302,0.523-0.726,0.523-1.169s-0.182-0.867-0.523-1.17
	c-0.143-0.121-0.162-0.364-0.021-0.505c0.121-0.141,0.363-0.161,0.506-0.02c0.484,0.424,0.746,1.049,0.746,1.694
	C62.667,10.208,62.386,10.835,61.902,11.259z"/>
<path fill="#FFFFFF" d="M62.99,12.448c-0.059,0.062-0.16,0.102-0.24,0.102c-0.102,0-0.203-0.04-0.262-0.122
	c-0.143-0.141-0.123-0.363,0.02-0.503c0.666-0.606,1.049-1.454,1.049-2.342c0-0.887-0.383-1.755-1.049-2.36
	c-0.143-0.12-0.162-0.362-0.02-0.504c0.119-0.141,0.361-0.162,0.502-0.021c0.809,0.727,1.271,1.775,1.271,2.885
	C64.261,10.653,63.798,11.702,62.99,12.448z"/>
</svg>
